<?xml version="1.0" standalone="no"?>
<!DOCTYPE svg PUBLIC "-//W3C//DTD SVG 20010904//EN" "http://www.w3.org/TR/2001/REC-SVG-20010904/DTD/svg10.dtd">
<svg version="1.0" xmlns="http://www.w3.org/2000/svg" width="597.000000pt" height="369.000000pt"
        viewBox="0 0 597.000000 369.000000" preserveAspectRatio="xMidYMid meet">
        <metadata>
                Created by potrace 1.16, written by Peter Selinger 2001-2019
        </metadata>
        <g transform="translate(0.000000,369.000000) scale(0.100000,-0.100000)" fill="#B73057" stroke="none">
                <path d="M780 3021 c0 -20 -26 -31 -76 -31 -128 0 -414 -136 -414 -195 0 -22
-50 -75 -71 -75 -22 0 -93 36 -110 56 -13 16 -55 19 -64 5 -3 -5 0 -16 7 -23
7 -8 29 -31 47 -51 29 -31 35 -43 33 -77 -2 -24 4 -50 13 -62 24 -36 18 -39
-22 -12 -46 31 -67 28 -71 -11 -2 -22 5 -39 28 -64 25 -27 30 -39 25 -62 -6
-28 -7 -28 -35 -14 -63 33 -69 1 -10 -57 l41 -39 -6 -87 c-3 -48 -8 -118 -10
-157 -6 -87 11 -363 26 -430 52 -228 111 -351 214 -442 54 -49 155 -113 178
-113 9 0 19 -4 22 -10 3 -5 17 -10 30 -10 32 0 40 -17 24 -48 -11 -20 -11 -26
-1 -29 6 -3 12 -9 12 -13 0 -5 17 -27 39 -48 21 -21 51 -62 66 -92 46 -92 197
-219 276 -234 21 -4 48 -15 61 -26 32 -25 78 -36 87 -21 6 8 18 7 46 -5 37
-15 40 -15 52 2 7 10 11 25 8 34 -4 8 17 60 47 118 56 110 58 134 7 140 -79 9
-154 39 -193 77 -41 40 -76 120 -59 135 4 3 28 12 53 19 183 53 326 193 399
391 35 97 55 193 56 267 0 65 2 73 23 83 23 10 24 17 5 68 -3 6 2 12 10 12 34
0 29 24 -11 61 -50 44 -53 59 -13 59 38 0 47 15 27 43 -9 12 -23 32 -32 45
-16 21 -16 22 12 22 20 0 48 -17 94 -55 65 -56 83 -64 96 -43 5 7 -27 44 -83
97 -55 52 -99 104 -113 131 -11 25 -28 56 -35 70 -13 23 -12 26 5 32 21 8 28
28 10 28 -5 0 -10 5 -10 11 0 7 -8 19 -18 28 -19 16 -47 61 -40 65 2 1 10 7
19 14 13 10 24 9 52 -3 45 -19 44 -19 44 3 0 9 -23 42 -52 72 -29 30 -55 66
-59 80 -9 36 -191 221 -251 255 -27 16 -61 39 -75 52 -14 13 -41 25 -60 28
-19 3 -48 12 -63 20 -69 36 -77 -2 -14 -65 44 -45 36 -45 -23 0 -19 15 -55 38
-80 51 -24 13 -50 30 -58 37 -22 19 -62 15 -62 -7z m143 -372 c31 -22 57 -42
57 -43 0 -1 -13 -1 -30 2 -22 3 -30 0 -30 -11 0 -8 4 -17 8 -19 4 -1 30 -32
57 -68 27 -36 55 -71 62 -78 16 -16 15 -14 18 -127 2 -49 7 -124 13 -165 11
-86 6 -258 -14 -494 -11 -124 -57 -227 -122 -271 -32 -22 -45 -24 -128 -22
-105 2 -129 14 -175 83 -53 81 -83 281 -80 540 1 102 -9 164 -28 164 -4 0 -8
12 -9 26 -1 14 -9 32 -17 40 -15 15 -19 24 -11 24 2 0 19 -13 37 -30 66 -58
118 -26 58 36 -32 33 -33 35 -20 70 20 56 -3 188 -36 206 -5 3 -1 2 7 0 8 -3
28 -6 44 -6 27 -1 31 3 40 39 15 55 31 80 66 105 26 18 52 24 165 39 6 0 36
-17 68 -40z" />
                <path d="M3085 2693 c-161 -37 -305 -143 -410 -305 -99 -150 -162 -313 -190
-487 -40 -247 40 -517 200 -676 67 -66 108 -92 240 -150 33 -14 149 -29 273
-34 8 -1 39 -25 70 -54 57 -52 116 -97 128 -97 3 0 20 -6 37 -14 18 -7 56 -19
85 -25 46 -9 58 -9 90 8 38 20 72 65 72 98 0 31 -29 62 -101 109 -38 24 -69
49 -69 55 0 6 25 39 56 72 31 34 84 105 118 157 97 150 110 183 137 359 30
193 16 304 -53 451 -68 143 -187 220 -338 220 -112 -1 -186 -29 -262 -99 -60
-56 -122 -176 -145 -279 -22 -100 -24 -377 -4 -480 8 -39 11 -75 7 -79 -12
-12 -97 80 -122 132 -49 104 -68 329 -38 454 30 128 96 244 202 353 54 56 102
76 196 82 83 5 114 29 123 95 5 37 2 44 -29 74 -19 17 -57 40 -84 50 -46 16
-141 21 -189 10z m411 -562 c51 -40 94 -142 94 -224 0 -153 -93 -352 -219
-471 -39 -37 -45 -32 -73 65 -19 63 -22 98 -23 244 0 175 7 221 53 329 31 72
50 89 98 83 23 -2 55 -14 70 -26z" />
                <path d="M4907 2220 c-42 -36 -52 -72 -68 -235 -14 -140 -5 -481 14 -592 15
-81 39 -115 92 -133 37 -12 77 -1 113 33 38 35 53 108 62 307 5 102 12 221 16
265 8 99 -23 279 -56 325 -47 65 -119 78 -173 30z" />
                <path d="M4524 2216 c-52 -23 -92 -83 -144 -221 -13 -33 -29 -73 -36 -90 -7
-16 -22 -59 -33 -95 -12 -36 -26 -73 -31 -82 -6 -10 -10 -22 -10 -28 0 -15
-43 -110 -50 -110 -11 0 -47 169 -70 332 -5 37 -17 79 -25 92 -20 30 -73 56
-114 56 -39 0 -96 -55 -104 -102 -14 -76 -18 -222 -9 -354 8 -129 12 -146 42
-208 53 -107 159 -186 250 -186 88 0 205 88 250 188 13 28 27 52 32 52 4 0 8
-20 8 -45 0 -138 143 -198 235 -100 50 53 55 86 55 386 -1 343 -13 411 -87
481 -50 47 -102 58 -159 34z" />
                <path d="M5480 2220 c-159 -16 -220 -32 -246 -63 -50 -59 -43 -135 16 -175 30
-20 43 -23 90 -18 114 13 220 18 220 11 0 -4 -26 -35 -58 -69 -92 -96 -135
-145 -197 -226 -79 -104 -105 -158 -105 -221 0 -49 3 -55 45 -96 44 -42 47
-43 113 -43 37 0 82 4 101 10 19 5 118 12 220 16 162 6 189 9 211 26 87 68 56
170 -60 201 -30 9 -90 19 -132 22 -80 8 -89 13 -63 38 47 48 241 300 266 347
36 67 20 141 -41 187 -64 49 -216 70 -380 53z" />
        </g>
</svg>